<?xml version="1.0" standalone="no"?>
<!DOCTYPE svg PUBLIC "-//W3C//DTD SVG 20010904//EN"
 "http://www.w3.org/TR/2001/REC-SVG-20010904/DTD/svg10.dtd">
<svg version="1.0" xmlns="http://www.w3.org/2000/svg"
 width="980.000000pt" height="980.000000pt" viewBox="0 0 980.000000 980.000000"
 preserveAspectRatio="xMidYMid meet">

<g transform="translate(0.000000,980.000000) scale(0.100000,-0.100000)"
fill="#D4F6CC" stroke="none">
<path d="M0 9607 l0 -192 110 -110 c87 -87 112 -107 119 -95 53 89 176 218
265 277 39 26 73 49 76 50 2 2 -54 62 -125 133 l-130 130 -157 0 -158 0 0
-193z"/>
<path d="M513 9753 c98 -146 130 -184 146 -177 9 4 48 16 86 27 78 21 294 29
398 13 l57 -8 -50 53 c-28 30 -65 73 -82 97 l-31 42 -278 0 -278 0 32 -47z"/>
<path d="M8698 9737 c-26 -34 -61 -75 -78 -92 -16 -16 -30 -32 -30 -35 0 -4
37 0 83 8 136 24 365 3 467 -42 11 -5 26 7 50 41 55 76 120 173 120 178 0 3
-127 5 -282 5 l-283 0 -47 -63z"/>
<path d="M9347 9672 l-127 -128 77 -51 c75 -50 188 -157 228 -217 11 -16 27
-39 36 -52 l15 -23 112 112 112 112 0 188 0 187 -163 0 -162 0 -128 -128z"/>
<path d="M0 9026 l0 -285 48 -37 c26 -21 52 -41 57 -45 7 -5 9 23 7 79 -5 116
13 226 53 338 l33 93 -52 38 c-28 22 -72 53 -98 71 l-48 33 0 -285z"/>
<path d="M9755 9282 c-23 -15 -65 -45 -95 -66 -30 -22 -56 -40 -57 -41 -2 -1
11 -39 28 -86 40 -108 58 -210 59 -327 l0 -92 54 42 55 43 0 278 c1 152 0 277
-1 276 -2 0 -21 -13 -43 -27z"/>
<path d="M7900 9034 c0 -6 -15 -18 -32 -27 -18 -10 -53 -31 -78 -47 -25 -16
-57 -35 -72 -41 -16 -6 -28 -15 -28 -19 0 -5 -20 -16 -45 -26 -25 -9 -45 -20
-45 -25 0 -4 -15 -13 -34 -19 -19 -6 -36 -14 -38 -18 -4 -9 -81 -46 -90 -44
-5 1 -8 -2 -8 -6 0 -5 -18 -15 -40 -22 -22 -7 -40 -17 -40 -22 0 -4 -4 -8 -10
-8 -9 0 -77 -29 -186 -81 -23 -10 -45 -19 -50 -19 -5 0 -26 -9 -46 -20 -20
-11 -57 -25 -82 -31 -25 -6 -46 -14 -46 -18 0 -4 -24 -13 -52 -20 -29 -8 -57
-17 -63 -21 -5 -5 -37 -16 -70 -25 -33 -9 -73 -22 -90 -30 -16 -7 -48 -16 -70
-20 -22 -4 -44 -10 -50 -15 -8 -6 -41 -15 -160 -43 -5 -2 -14 -5 -20 -8 -5 -4
-41 -12 -80 -18 -38 -7 -79 -17 -90 -22 -25 -11 -157 -35 -340 -60 -77 -11
-153 -24 -170 -29 -16 -5 -100 -14 -185 -20 -85 -6 -189 -15 -230 -20 -97 -13
-644 -13 -724 0 -33 5 -135 14 -226 20 -91 6 -183 16 -205 21 -22 5 -98 18
-170 28 -170 25 -305 50 -330 61 -11 5 -51 14 -90 21 -38 6 -74 14 -80 17 -5
3 -16 7 -25 8 -25 4 -134 34 -155 44 -11 4 -42 14 -70 20 -27 6 -54 15 -60 19
-5 5 -35 14 -65 21 -30 7 -64 18 -75 25 -11 6 -44 18 -72 25 -29 8 -53 17 -53
21 0 3 -14 9 -32 13 -17 3 -55 17 -84 31 -29 14 -56 25 -60 25 -4 0 -25 9 -48
19 -109 52 -177 81 -186 81 -6 0 -10 4 -10 8 0 4 -17 14 -37 21 -21 8 -68 31
-105 52 -36 22 -71 39 -77 39 -5 0 -16 6 -24 14 -8 8 -29 22 -48 30 -19 9 -69
38 -111 64 -42 26 -94 58 -115 70 -21 13 -32 18 -25 11 6 -7 12 -23 12 -36 0
-13 5 -23 11 -23 7 0 8 -11 4 -29 -4 -17 -2 -32 5 -36 8 -5 9 -28 4 -71 -6
-63 -8 -67 -73 -133 -36 -38 -81 -85 -100 -104 l-33 -35 29 -16 30 -15 64 65
c51 52 65 61 72 48 5 -8 6 -23 2 -32 -5 -13 -35 -139 -35 -148 0 -1 14 -7 30
-14 17 -7 30 -16 30 -20 0 -5 15 -14 34 -20 19 -6 36 -14 38 -18 2 -4 39 -25
83 -47 44 -22 82 -43 85 -46 3 -3 26 -14 53 -24 26 -10 47 -22 47 -26 0 -5 5
-9 12 -9 6 0 30 -9 52 -19 110 -52 176 -81 183 -81 4 0 20 -6 35 -14 14 -8 43
-19 65 -26 21 -7 43 -16 48 -20 6 -4 35 -15 65 -25 30 -10 60 -21 65 -25 6 -4
33 -13 60 -20 28 -7 55 -17 60 -21 6 -4 42 -15 80 -25 39 -9 75 -20 80 -24 6
-4 35 -13 65 -20 30 -7 60 -15 65 -19 12 -7 174 -47 275 -67 41 -8 84 -19 95
-24 11 -5 63 -16 115 -25 52 -8 106 -17 120 -20 528 -93 1215 -115 1745 -55
95 10 371 49 400 55 11 3 67 14 125 24 58 11 143 29 190 40 47 11 126 29 175
41 50 11 97 24 105 29 9 5 43 14 75 21 33 8 65 17 70 21 6 4 39 15 75 24 36 9
70 20 75 24 6 4 33 14 60 21 28 7 55 16 60 20 6 4 34 15 64 25 29 9 65 24 80
31 14 8 30 14 34 14 9 0 20 5 127 53 30 13 72 30 93 38 20 7 37 17 37 21 0 4
6 8 14 8 7 0 33 10 57 23 24 13 60 29 79 37 19 8 40 18 45 22 11 9 136 77 195
106 19 9 41 23 48 30 7 6 16 12 20 12 28 1 31 18 18 81 -8 35 -17 72 -21 81
-4 9 -3 24 2 32 7 13 21 4 72 -48 58 -58 66 -63 87 -54 13 6 24 16 24 22 0 6
-42 55 -94 109 l-94 97 -7 64 c-4 43 -3 66 5 71 7 4 9 19 5 36 -4 18 -3 29 4
29 6 0 11 10 11 23 0 13 5 28 12 35 6 6 9 15 5 19 -4 3 -7 2 -7 -3z"/>
<path d="M1470 8295 l-174 -174 23 -25 22 -24 169 172 c92 94 171 174 174 177
3 3 -4 15 -17 27 l-23 21 -174 -174z"/>
<path d="M8125 8450 c-10 -11 -16 -22 -14 -24 2 -3 80 -81 173 -176 l169 -171
24 23 24 22 -173 173 c-95 95 -176 173 -179 173 -3 0 -14 -9 -24 -20z"/>
<path d="M7815 8140 c-55 -55 -96 -100 -92 -100 15 0 161 133 185 168 33 50 1
27 -93 -68z"/>
<path d="M1889 8213 c12 -22 48 -57 121 -120 38 -33 28 -19 -35 45 -49 51 -91
92 -93 92 -1 0 2 -8 7 -17z"/>
<path d="M1117 7932 l-127 -127 -59 -3 c-33 -1 -71 2 -85 8 -32 12 -33 3 -2
-43 13 -19 27 -44 31 -56 3 -12 10 -21 15 -21 5 0 16 -20 26 -45 9 -25 20 -45
25 -45 4 0 13 -15 19 -34 6 -19 14 -36 18 -38 9 -4 46 -81 44 -90 -1 -5 2 -8
6 -8 5 0 15 -18 22 -40 7 -22 17 -40 22 -40 4 0 8 -4 8 -10 0 -9 29 -77 81
-186 10 -23 19 -45 19 -50 0 -5 9 -26 20 -46 11 -20 25 -57 31 -82 6 -25 14
-46 18 -46 4 0 13 -24 20 -52 8 -29 17 -57 21 -63 5 -5 16 -37 25 -70 9 -33
22 -73 30 -90 7 -16 16 -48 20 -70 4 -22 10 -44 15 -50 6 -8 15 -41 43 -160 2
-5 5 -14 8 -20 4 -5 12 -41 18 -80 7 -38 17 -79 22 -90 11 -25 35 -157 60
-340 11 -77 24 -153 29 -170 5 -16 14 -100 20 -185 6 -85 15 -189 20 -230 13
-97 13 -644 0 -724 -5 -33 -14 -135 -20 -226 -6 -91 -16 -183 -21 -205 -5 -22
-18 -98 -28 -170 -25 -170 -50 -305 -61 -330 -5 -11 -14 -51 -21 -90 -6 -38
-14 -74 -17 -80 -3 -5 -7 -16 -8 -25 -4 -25 -34 -134 -44 -155 -4 -11 -14 -42
-20 -70 -6 -27 -15 -54 -19 -60 -5 -5 -14 -35 -21 -65 -7 -30 -18 -64 -25 -75
-6 -11 -18 -44 -25 -72 -8 -29 -17 -53 -21 -53 -3 0 -9 -14 -13 -32 -3 -17
-17 -55 -31 -84 -14 -29 -25 -56 -25 -60 0 -4 -9 -25 -19 -48 -52 -109 -81
-177 -81 -186 0 -6 -4 -10 -8 -10 -4 0 -14 -17 -21 -37 -8 -21 -31 -68 -52
-105 -22 -36 -39 -71 -39 -77 0 -5 -6 -16 -13 -23 -7 -7 -22 -30 -33 -50 -10
-21 -36 -67 -57 -104 -22 -36 -37 -67 -35 -70 3 -2 30 3 62 11 32 8 82 14 112
12 l55 -3 107 -107 107 -106 18 21 c9 12 17 25 17 28 0 4 -27 34 -60 68 -65
66 -75 92 -35 92 14 0 25 -4 25 -10 0 -5 11 -10 24 -10 13 0 42 -7 65 -14 36
-13 42 -13 56 0 8 9 15 22 15 29 0 7 6 20 13 27 6 7 30 49 52 93 22 44 43 82
46 85 3 3 14 26 24 53 10 26 22 47 26 47 5 0 9 5 9 12 0 6 9 30 19 52 52 110
81 176 81 183 0 4 6 20 14 35 8 14 19 43 26 65 7 21 16 43 20 48 4 6 15 35 25
65 10 30 21 60 25 65 4 6 13 33 20 60 7 28 17 55 21 60 4 6 15 42 25 80 9 39
20 75 24 80 4 6 13 35 20 65 7 30 15 60 19 65 7 12 47 174 67 275 8 41 19 84
24 95 5 11 16 63 25 115 8 52 17 106 20 120 93 528 115 1215 55 1745 -10 95
-49 371 -55 400 -3 11 -14 67 -24 125 -11 58 -29 143 -40 190 -11 47 -29 126
-41 175 -11 50 -24 97 -29 105 -5 9 -14 43 -21 75 -8 33 -17 65 -21 70 -4 6
-15 39 -24 75 -9 36 -20 70 -24 75 -4 6 -14 33 -21 60 -7 28 -16 55 -20 60 -4
6 -15 34 -25 64 -9 29 -24 65 -31 80 -8 14 -14 30 -14 34 0 9 -5 20 -53 127
-13 30 -30 72 -38 93 -7 20 -17 37 -21 37 -4 0 -8 6 -8 14 0 7 -10 33 -23 57
-13 24 -29 60 -37 79 -8 19 -18 40 -22 45 -9 11 -77 136 -106 195 -31 64 -36
66 -111 42 -37 -12 -77 -22 -89 -22 -12 0 -22 -4 -22 -10 0 -5 -11 -10 -25
-10 -42 0 -30 26 50 108 41 42 75 81 75 87 -1 5 -6 20 -13 32 -12 22 -17 18
-140 -105z"/>
<path d="M8540 8031 c-12 -30 -11 -33 27 -74 22 -23 56 -58 76 -78 44 -44 48
-69 12 -69 -14 0 -25 5 -25 10 0 6 -10 10 -22 10 -12 0 -52 10 -89 22 l-68 22
-21 -24 c-11 -13 -20 -29 -20 -36 0 -7 -6 -19 -13 -26 -6 -7 -30 -49 -52 -93
-22 -44 -43 -82 -46 -85 -3 -3 -14 -26 -24 -52 -10 -27 -22 -48 -26 -48 -5 0
-9 -5 -9 -12 0 -6 -9 -30 -19 -52 -47 -100 -79 -173 -86 -196 -4 -14 -11 -29
-15 -35 -4 -5 -13 -28 -20 -50 -7 -22 -16 -44 -20 -50 -4 -5 -15 -35 -25 -65
-10 -30 -21 -59 -25 -65 -4 -5 -13 -32 -20 -60 -7 -27 -17 -55 -21 -60 -4 -6
-15 -42 -25 -80 -9 -39 -20 -74 -24 -80 -4 -5 -13 -35 -20 -65 -7 -30 -15 -59
-19 -65 -7 -12 -47 -174 -67 -275 -8 -41 -19 -84 -24 -95 -5 -11 -16 -63 -25
-115 -8 -52 -17 -106 -20 -120 -93 -528 -115 -1215 -55 -1745 10 -95 49 -371
55 -400 3 -11 14 -67 24 -125 11 -58 29 -143 40 -190 11 -47 29 -125 41 -175
11 -49 24 -97 29 -105 5 -9 14 -43 21 -75 8 -33 17 -64 21 -70 4 -5 15 -39 24
-75 9 -36 20 -69 24 -75 4 -5 14 -32 21 -60 7 -27 16 -54 20 -60 4 -5 15 -34
25 -64 9 -29 24 -65 31 -80 8 -14 14 -30 14 -34 0 -9 5 -20 53 -127 13 -30 30
-72 38 -92 7 -21 17 -38 21 -38 4 0 8 -6 8 -14 0 -7 10 -33 23 -57 13 -24 29
-60 37 -79 8 -19 18 -39 22 -45 9 -11 77 -136 106 -195 23 -48 29 -50 75 -34
22 8 50 14 63 14 13 0 24 5 24 10 0 6 11 10 25 10 40 0 30 -26 -35 -92 -33
-34 -60 -64 -60 -68 0 -3 8 -16 18 -28 l17 -21 107 106 107 107 55 3 c33 2 84
-4 125 -15 l69 -19 -29 46 c-16 25 -34 58 -40 73 -6 16 -15 28 -19 28 -5 0
-16 20 -26 45 -9 25 -20 45 -25 45 -4 0 -13 15 -19 34 -6 19 -14 36 -18 38 -9
4 -46 81 -44 90 1 5 -2 8 -6 8 -5 0 -15 18 -22 40 -7 22 -17 40 -22 40 -4 0
-8 4 -8 10 0 9 -29 77 -81 186 -10 23 -19 45 -19 50 0 5 -9 26 -20 46 -11 20
-25 57 -31 82 -6 25 -14 46 -18 46 -4 0 -13 24 -20 53 -8 28 -17 57 -21 62 -5
6 -16 37 -25 70 -9 33 -22 74 -30 90 -7 17 -16 48 -20 70 -4 22 -10 45 -15 50
-6 8 -15 41 -43 160 -2 6 -5 15 -8 20 -4 6 -12 42 -18 80 -7 39 -17 79 -22 90
-11 25 -35 157 -60 340 -11 77 -24 154 -29 170 -5 17 -14 100 -20 185 -6 85
-15 189 -20 230 -13 97 -13 644 0 724 5 33 14 135 20 226 6 91 16 183 21 205
5 22 18 99 28 170 25 170 50 305 61 330 5 11 14 52 21 90 6 39 14 74 17 80 3
5 7 16 8 25 4 25 34 134 44 155 4 11 14 42 20 70 6 27 15 54 19 60 5 5 14 35
21 65 7 30 18 64 25 75 6 11 18 44 25 73 8 28 17 52 21 52 3 0 9 14 13 32 3
17 17 55 31 84 14 29 25 56 25 60 0 4 9 25 19 48 52 109 81 177 81 186 0 6 4
10 8 10 4 0 14 17 21 38 8 20 31 67 52 104 22 36 39 71 39 76 0 5 9 19 20 32
11 13 20 29 20 35 0 7 8 23 18 36 10 13 33 50 51 81 l32 57 -28 -10 c-16 -5
-55 -8 -86 -6 l-58 3 -128 128 -128 128 -13 -31z"/>
<path d="M7684 8008 l-19 -23 23 19 c21 18 27 26 19 26 -2 0 -12 -10 -23 -22z"/>
<path d="M1620 7795 c52 -52 96 -95 97 -95 8 0 0 13 -27 42 -52 56 -57 62 -69
85 -6 13 -31 32 -54 43 -39 19 -35 14 53 -75z"/>
<path d="M8196 7844 c-75 -84 -81 -101 -12 -34 31 30 56 56 56 57 0 12 -25 -2
-44 -23z"/>
<path d="M6480 6805 l-893 -893 39 -6 c198 -30 367 -60 454 -81 l105 -25 767
773 767 772 -27 15 c-15 8 -31 13 -35 12 -4 -1 -10 5 -13 13 -4 8 -10 15 -14
15 -10 0 -180 172 -180 181 0 4 -6 9 -12 12 -7 2 -19 25 -26 50 -8 25 -19 48
-26 50 -7 3 -404 -386 -906 -888z"/>
<path d="M2389 7644 c-8 -26 -20 -49 -26 -51 -7 -3 -13 -8 -13 -12 0 -9 -170
-181 -180 -181 -4 0 -10 -7 -14 -15 -3 -8 -9 -14 -13 -14 -4 1 -22 -4 -40 -12
l-32 -15 802 -802 802 -802 135 39 c134 39 370 91 410 91 11 0 20 4 20 9 0 12
-1815 1811 -1828 1811 -5 0 -16 -21 -23 -46z"/>
<path d="M5316 5474 c-130 -31 -248 -113 -287 -198 -23 -51 -26 -171 -4 -222
8 -20 30 -57 49 -83 87 -120 69 -183 -82 -280 l-52 -33 57 -107 c32 -58 69
-128 83 -154 25 -48 26 -48 65 -43 53 6 226 94 297 150 42 33 64 62 88 110 30
60 32 71 28 148 -3 76 -7 91 -51 175 -60 117 -61 148 -9 194 20 19 48 41 61
49 l23 15 -56 90 c-31 50 -69 116 -84 147 -30 64 -33 65 -126 42z"/>
<path d="M5937 5311 c-236 -669 -297 -847 -297 -863 0 -17 11 -18 198 -16 193
3 197 3 200 24 6 43 33 54 142 61 93 6 104 4 116 -12 8 -10 14 -31 14 -47 l0
-28 210 0 c161 0 210 3 210 13 0 6 -42 140 -94 297 -83 253 -225 614 -274 694
l-17 28 -177 3 -176 3 -55 -157z m303 -393 c0 -39 -25 -68 -58 -68 -66 0 -83
75 -31 131 l31 33 29 -32 c19 -21 29 -43 29 -64z"/>
<path d="M3349 5456 c-2 -2 -4 -233 -3 -513 l0 -508 285 -2 c311 -2 370 5 461
54 161 88 278 331 250 523 -28 196 -129 340 -282 400 -91 36 -225 50 -476 50
-127 0 -233 -2 -235 -4z m474 -307 c148 -41 196 -243 83 -355 -45 -45 -108
-71 -150 -60 -26 6 -26 7 -27 109 -1 177 2 301 7 309 7 11 42 10 87 -3z"/>
<path d="M4445 4943 l0 -513 205 2 205 3 -1 85 c-2 129 -3 785 -1 865 l2 69
-205 1 -205 1 0 -513z"/>
<path d="M2945 3260 l-806 -806 28 -14 c15 -7 32 -13 36 -12 4 1 10 -5 13 -13
4 -8 10 -15 14 -15 10 0 180 -172 180 -181 0 -4 6 -9 13 -12 6 -2 18 -25 25
-50 8 -25 19 -48 26 -50 7 -3 415 397 931 913 817 817 916 919 894 924 -13 3
-53 10 -89 16 -102 17 -294 59 -380 84 l-78 23 -807 -807z"/>
<path d="M6015 3990 c-68 -15 -149 -28 -471 -76 -31 -4 -4 -33 868 -902 494
-493 905 -898 912 -900 8 -2 19 15 27 44 8 25 20 49 27 51 6 3 12 8 12 12 0 9
170 181 180 181 4 0 10 7 14 15 3 8 9 14 13 14 4 -1 22 4 40 12 l32 15 -777
777 c-427 427 -782 777 -787 776 -6 0 -46 -9 -90 -19z"/>
<path d="M4610 2121 c-14 -4 -92 -11 -175 -15 -82 -4 -181 -11 -220 -16 -98
-12 -366 -50 -390 -55 -11 -3 -67 -14 -125 -24 -58 -11 -143 -29 -190 -40 -47
-11 -125 -29 -175 -41 -49 -11 -97 -24 -105 -29 -9 -5 -43 -14 -75 -21 -33 -8
-64 -17 -70 -21 -5 -4 -39 -15 -75 -24 -36 -9 -69 -20 -75 -24 -5 -4 -32 -14
-60 -21 -27 -7 -54 -16 -60 -20 -5 -4 -35 -15 -65 -25 -30 -10 -59 -21 -65
-25 -5 -4 -21 -11 -35 -15 -27 -8 -52 -18 -140 -58 -30 -13 -72 -30 -92 -38
-21 -7 -38 -17 -38 -21 0 -4 -6 -8 -14 -8 -7 0 -33 -10 -57 -23 -24 -13 -60
-29 -79 -37 -19 -8 -39 -18 -45 -22 -14 -11 -151 -85 -197 -106 -21 -9 -38
-24 -38 -32 0 -22 27 -147 35 -159 3 -6 3 -21 0 -32 -6 -19 -15 -14 -84 55
l-77 77 -24 -21 -24 -20 36 -38 c20 -20 67 -69 106 -109 68 -71 70 -74 76
-137 5 -43 4 -66 -4 -71 -7 -4 -9 -19 -5 -36 4 -18 3 -29 -4 -29 -6 0 -11 -7
-11 -15 0 -13 8 -11 41 7 23 13 53 29 68 37 14 8 28 18 31 22 3 5 23 15 44 24
22 9 45 23 53 31 8 8 21 14 28 14 7 0 20 6 27 13 16 15 90 51 101 49 4 -1 7 2
7 6 0 5 18 15 40 22 22 7 40 17 40 22 0 4 4 8 10 8 9 0 77 29 186 81 23 10 45
19 50 19 5 0 26 9 46 20 20 11 57 25 82 31 25 6 46 14 46 18 0 4 24 13 53 20
28 8 57 17 62 21 6 5 37 16 70 25 33 9 74 22 90 30 17 7 48 16 70 20 22 4 45
10 50 15 8 6 41 15 160 43 6 2 15 5 20 8 6 4 42 12 80 18 39 7 79 17 90 22 25
11 157 35 340 60 77 11 154 24 170 29 17 5 100 14 185 20 85 6 189 15 230 20
97 13 644 13 724 0 33 -5 135 -14 226 -20 91 -6 183 -16 205 -21 22 -5 99 -18
170 -28 170 -25 305 -50 330 -61 11 -5 52 -14 90 -21 39 -6 74 -14 80 -17 5
-3 16 -7 25 -8 25 -4 134 -34 155 -44 11 -4 42 -14 70 -20 27 -6 54 -15 60
-19 5 -5 35 -14 65 -21 30 -7 64 -18 75 -25 11 -6 44 -18 73 -25 28 -8 52 -17
52 -21 0 -3 14 -9 32 -13 17 -3 55 -17 84 -31 29 -14 56 -25 60 -25 4 0 25 -9
48 -19 109 -52 177 -81 186 -81 6 0 10 -4 10 -8 0 -4 17 -14 38 -21 20 -8 67
-31 104 -52 36 -22 71 -39 77 -39 5 0 16 -6 23 -13 7 -7 30 -22 50 -33 21 -10
67 -36 104 -57 36 -22 68 -36 72 -32 4 3 1 10 -6 14 -8 5 -11 17 -7 33 4 15 2
29 -5 33 -8 5 -9 27 -4 71 6 63 8 66 76 137 39 40 86 89 106 109 l36 38 -24
20 -24 21 -77 -77 c-69 -69 -78 -74 -84 -55 -3 11 -3 26 0 32 8 12 35 137 35
161 0 10 -13 21 -34 28 -19 6 -36 14 -38 18 -2 4 -39 25 -83 47 -44 22 -82 43
-85 46 -3 3 -26 14 -52 24 -27 10 -48 22 -48 26 0 5 -5 9 -12 9 -6 0 -30 9
-52 19 -110 52 -176 81 -183 81 -4 0 -20 6 -35 14 -14 8 -43 19 -65 26 -21 7
-42 16 -48 20 -5 4 -35 15 -65 25 -30 10 -59 21 -65 25 -5 4 -32 13 -60 20
-27 7 -55 17 -60 21 -6 4 -42 15 -80 25 -39 9 -74 20 -80 24 -5 4 -35 13 -65
20 -30 7 -59 15 -65 19 -12 7 -174 47 -275 67 -41 8 -84 19 -95 24 -11 5 -63
16 -115 25 -52 8 -106 17 -120 20 -165 29 -423 60 -640 76 -186 14 -685 21
-720 10z"/>
<path d="M8020 2095 c0 -2 14 -19 30 -37 52 -56 57 -62 69 -85 6 -13 31 -32
54 -43 39 -19 35 -14 -53 75 -93 93 -100 100 -100 90z"/>
<path d="M1670 1985 c-30 -30 -49 -55 -42 -55 7 0 23 12 36 26 86 96 90 114 6
29z"/>
<path d="M2164 1788 l-19 -23 23 19 c21 18 27 26 19 26 -2 0 -12 -10 -23 -22z"/>
<path d="M2073 1710 c-79 -68 -103 -91 -121 -118 -33 -50 -1 -27 93 68 108
108 120 130 28 50z"/>
<path d="M7765 1662 c49 -51 91 -92 93 -92 1 0 -2 8 -7 18 -12 21 -48 56 -121
119 -38 33 -28 19 35 -45z"/>
<path d="M8223 1551 l-172 -176 22 -23 21 -23 175 176 176 175 -25 23 -25 24
-172 -176z"/>
<path d="M1382 1697 l-21 -23 174 -174 c173 -173 174 -174 195 -155 11 10 19
22 18 26 -3 8 -337 349 -342 349 -1 0 -12 -10 -24 -23z"/>
<path d="M9627 1099 c7 -138 -7 -250 -46 -361 l-28 -79 51 -34 c28 -19 84 -57
124 -85 l72 -50 0 284 0 285 -47 37 c-27 21 -67 56 -90 78 l-42 40 6 -115z"/>
<path d="M120 1144 c-30 -30 -70 -64 -87 -76 l-33 -23 0 -277 0 -278 42 28
c24 15 80 53 124 84 l81 58 -28 78 c-38 109 -53 223 -46 354 3 59 5 107 4 107
-1 -1 -27 -26 -57 -55z"/>
<path d="M142 457 l-142 -142 0 -158 0 -157 198 1 197 0 122 128 122 128 -77
51 c-74 49 -187 156 -227 216 -11 16 -27 39 -36 52 -15 23 -15 23 -157 -119z"/>
<path d="M9506 584 c-21 -54 -174 -214 -260 -271 -39 -26 -73 -49 -76 -50 -2
-2 54 -62 125 -133 l130 -130 187 0 188 0 0 163 0 162 -138 138 c-75 75 -140
137 -144 137 -3 0 -9 -7 -12 -16z"/>
<path d="M626 198 c-20 -29 -58 -86 -86 -125 l-50 -73 285 0 284 0 54 68 c30
37 64 76 76 86 32 29 26 34 -31 23 -118 -21 -348 7 -460 56 l-37 17 -35 -52z"/>
<path d="M9078 225 c-89 -39 -224 -58 -359 -52 l-115 5 53 -57 c29 -31 63 -71
75 -88 l23 -33 277 0 278 0 -28 42 c-31 50 -143 208 -145 208 -1 -1 -28 -12
-59 -25z"/>
</g>
</svg>
